<svg viewBox="0 0 120 80" xmlns="http://www.w3.org/2000/svg" role="img">
  <title>Flagge der Europäischen Union (12 Sterne)</title>
  <rect width="120" height="80" fill="#003399"/>
    <path d="M60.00,10.00 L61.35,14.15 L65.71,14.15 L62.18,16.71 L63.53,20.85 L60.00,18.29 L56.47,20.85 L57.82,16.71 L54.29,14.15 L58.65,14.15 Z" fill="#FFCC00"/>
    <path d="M72.00,13.22 L73.35,17.36 L77.71,17.36 L74.18,19.92 L75.53,24.07 L72.00,21.51 L68.47,24.07 L69.82,19.92 L66.29,17.36 L70.65,17.36 Z" fill="#FFCC00"/>
    <path d="M80.78,22.00 L82.13,26.15 L86.49,26.15 L82.96,28.71 L84.31,32.85 L80.78,30.29 L77.26,32.85 L78.60,28.71 L75.08,26.15 L79.44,26.15 Z" fill="#FFCC00"/>
    <path d="M84.00,34.00 L85.35,38.15 L89.71,38.15 L86.18,40.71 L87.53,44.85 L84.00,42.29 L80.47,44.85 L81.82,40.71 L78.29,38.15 L82.65,38.15 Z" fill="#FFCC00"/>
    <path d="M80.78,46.00 L82.13,50.15 L86.49,50.15 L82.96,52.71 L84.31,56.85 L80.78,54.29 L77.26,56.85 L78.60,52.71 L75.08,50.15 L79.44,50.15 Z" fill="#FFCC00"/>
    <path d="M72.00,54.78 L73.35,58.93 L77.71,58.93 L74.18,61.49 L75.53,65.64 L72.00,63.08 L68.47,65.64 L69.82,61.49 L66.29,58.93 L70.65,58.93 Z" fill="#FFCC00"/>
    <path d="M60.00,58.00 L61.35,62.15 L65.71,62.15 L62.18,64.71 L63.53,68.85 L60.00,66.29 L56.47,68.85 L57.82,64.71 L54.29,62.15 L58.65,62.15 Z" fill="#FFCC00"/>
    <path d="M48.00,54.78 L49.35,58.93 L53.71,58.93 L50.18,61.49 L51.53,65.64 L48.00,63.08 L44.47,65.64 L45.82,61.49 L42.29,58.93 L46.65,58.93 Z" fill="#FFCC00"/>
    <path d="M39.22,46.00 L40.56,50.15 L44.92,50.15 L41.40,52.71 L42.74,56.85 L39.22,54.29 L35.69,56.85 L37.04,52.71 L33.51,50.15 L37.87,50.15 Z" fill="#FFCC00"/>
    <path d="M36.00,34.00 L37.35,38.15 L41.71,38.15 L38.18,40.71 L39.53,44.85 L36.00,42.29 L32.47,44.85 L33.82,40.71 L30.29,38.15 L34.65,38.15 Z" fill="#FFCC00"/>
    <path d="M39.22,22.00 L40.56,26.15 L44.92,26.15 L41.40,28.71 L42.74,32.85 L39.22,30.29 L35.69,32.85 L37.04,28.71 L33.51,26.15 L37.87,26.15 Z" fill="#FFCC00"/>
    <path d="M48.00,13.22 L49.35,17.36 L53.71,17.36 L50.18,19.92 L51.53,24.07 L48.00,21.51 L44.47,24.07 L45.82,19.92 L42.29,17.36 L46.65,17.36 Z" fill="#FFCC00"/>
</svg>
