<svg viewBox="0 0 120 80" xmlns="http://www.w3.org/2000/svg" role="img">
  <title>Sternenkranz mit falscher Sternzahl</title>
  <rect width="120" height="80" fill="#003399"/>
    <path d="M60.00,10.00 L61.35,14.15 L65.71,14.15 L62.18,16.71 L63.53,20.85 L60.00,18.29 L56.47,20.85 L57.82,16.71 L54.29,14.15 L58.65,14.15 Z" fill="#FFCC00"/>
    <path d="M74.11,14.58 L75.45,18.73 L79.81,18.73 L76.29,21.29 L77.63,25.44 L74.11,22.88 L70.58,25.44 L71.93,21.29 L68.40,18.73 L72.76,18.73 Z" fill="#FFCC00"/>
    <path d="M82.83,26.58 L84.17,30.73 L88.53,30.73 L85.00,33.29 L86.35,37.44 L82.83,34.88 L79.30,37.44 L80.65,33.29 L77.12,30.73 L81.48,30.73 Z" fill="#FFCC00"/>
    <path d="M82.83,41.42 L84.17,45.56 L88.53,45.56 L85.00,48.12 L86.35,52.27 L82.83,49.71 L79.30,52.27 L80.65,48.12 L77.12,45.56 L81.48,45.56 Z" fill="#FFCC00"/>
    <path d="M74.11,53.42 L75.45,57.56 L79.81,57.56 L76.29,60.12 L77.63,64.27 L74.11,61.71 L70.58,64.27 L71.93,60.12 L68.40,57.56 L72.76,57.56 Z" fill="#FFCC00"/>
    <path d="M60.00,58.00 L61.35,62.15 L65.71,62.15 L62.18,64.71 L63.53,68.85 L60.00,66.29 L56.47,68.85 L57.82,64.71 L54.29,62.15 L58.65,62.15 Z" fill="#FFCC00"/>
    <path d="M45.89,53.42 L47.24,57.56 L51.60,57.56 L48.07,60.12 L49.42,64.27 L45.89,61.71 L42.37,64.27 L43.71,60.12 L40.19,57.56 L44.55,57.56 Z" fill="#FFCC00"/>
    <path d="M37.17,41.42 L38.52,45.56 L42.88,45.56 L39.35,48.12 L40.70,52.27 L37.17,49.71 L33.65,52.27 L35.00,48.12 L31.47,45.56 L35.83,45.56 Z" fill="#FFCC00"/>
    <path d="M37.17,26.58 L38.52,30.73 L42.88,30.73 L39.35,33.29 L40.70,37.44 L37.17,34.88 L33.65,37.44 L35.00,33.29 L31.47,30.73 L35.83,30.73 Z" fill="#FFCC00"/>
    <path d="M45.89,14.58 L47.24,18.73 L51.60,18.73 L48.07,21.29 L49.42,25.44 L45.89,22.88 L42.37,25.44 L43.71,21.29 L40.19,18.73 L44.55,18.73 Z" fill="#FFCC00"/>
</svg>
