<svg viewBox="0 0 140 170" xmlns="http://www.w3.org/2000/svg" role="img">
  <title>Durchgestrichener Stimmzettel (ungültig)</title>
  <rect width="140" height="170" rx="6" fill="#ffffff" stroke="#cccccc" stroke-width="1.5"/>
  <text x="70" y="16" text-anchor="middle" font-family="sans-serif" font-size="9" font-weight="700" fill="#222">Stimmzettel</text>
  <line x1="70" y1="24" x2="70" y2="160" stroke="#dddddd" stroke-width="1"/>
  <text x="38" y="34" text-anchor="middle" font-family="sans-serif" font-size="6.5" fill="#444444">Erststimme</text>
  <text x="102" y="34" text-anchor="middle" font-family="sans-serif" font-size="6.5" fill="#444444">Zweitstimme</text>
  <g fill="none" stroke="#333333" stroke-width="1.2">
    <circle cx="18" cy="48" r="6"/><circle cx="18" cy="72" r="6"/><circle cx="18" cy="96" r="6"/>
    <circle cx="82" cy="48" r="6"/><circle cx="82" cy="72" r="6"/><circle cx="82" cy="96" r="6"/>
  </g>
  <g fill="#e5e5e5">
    <rect x="26" y="44" width="32" height="4" rx="2"/><rect x="26" y="68" width="32" height="4" rx="2"/><rect x="26" y="92" width="32" height="4" rx="2"/>
    <rect x="90" y="44" width="32" height="4" rx="2"/><rect x="90" y="68" width="32" height="4" rx="2"/><rect x="90" y="92" width="32" height="4" rx="2"/>
  </g>
  <g stroke="#cc1111" stroke-width="3.5" stroke-linecap="round" opacity="0.85">
    <path d="M16 36 L124 150"/>
    <path d="M124 36 L16 150"/>
  </g>
</svg>
